<?xml version="1.0" encoding="UTF-8"?>
<svg id="Capa_2" data-name="Capa 2" xmlns="http://www.w3.org/2000/svg" viewBox="0 0 504.2 105.05">
  <defs>
    <style>
      .cls-1 {
        fill: #d4111c;
      }

      .cls-2 {
        fill: #1d1d1b;
      }
    </style>
  </defs>
  <g id="Capa_2-2" data-name="Capa 2">
    <g>
      <rect class="cls-1" x="-33.73" y="34.88" width="103.9" height="36.44" transform="translate(71.32 34.88) rotate(90)"/>
      <g>
        <path class="cls-2" d="M191.26,105.05h-45.57l-35.82-33.9h-25.12v33.9H47.96V1.15H121.67c3.48,0,7.25,.27,11.32,.82,4.07,.55,8.12,1.42,12.15,2.61,4.03,1.19,7.91,2.7,11.67,4.53,3.75,1.83,7.07,4.07,9.95,6.73,2.88,2.66,5.19,5.72,6.93,9.2,1.74,3.48,2.61,7.41,2.61,11.8,0,3.75-.73,7.18-2.2,10.29-1.47,3.11-3.41,5.88-5.83,8.3-2.43,2.43-5.19,4.55-8.3,6.38-3.11,1.83-6.27,3.34-9.47,4.53l40.77,38.71ZM121.67,46.44c1.46,0,3.23-.16,5.28-.48,2.06-.32,4-.84,5.83-1.58,1.83-.73,3.41-1.74,4.74-3.02,1.33-1.28,1.99-2.88,1.99-4.8s-.67-3.57-1.99-4.94c-1.33-1.37-2.93-2.47-4.8-3.29-1.88-.82-3.82-1.44-5.83-1.85-2.01-.41-3.75-.62-5.22-.62h-36.92v20.59h36.92Z"/>
        <path class="cls-2" d="M261.95,.05c6.04,.18,12.19,.76,18.46,1.72,6.27,.96,12.35,2.38,18.26,4.25,5.9,1.88,11.44,4.23,16.61,7.07,5.17,2.84,9.7,6.2,13.59,10.09,3.89,3.89,6.95,8.33,9.2,13.31,2.24,4.99,3.36,10.55,3.36,16.68s-1.21,11.69-3.64,16.68c-2.43,4.99-5.67,9.4-9.75,13.25-4.07,3.84-8.81,7.14-14.2,9.88s-11.03,5.01-16.88,6.79c-5.86,1.78-11.81,3.11-17.84,3.98-6.04,.87-11.76,1.3-17.16,1.3s-10.82-.43-16.81-1.3c-5.99-.87-11.94-2.2-17.84-3.98-5.9-1.78-11.55-4.05-16.95-6.79-5.4-2.75-10.18-6.04-14.34-9.88-4.17-3.84-7.48-8.26-9.95-13.25-2.47-4.99-3.71-10.54-3.71-16.68s1.17-11.74,3.5-16.81,5.49-9.61,9.47-13.59,8.62-7.43,13.93-10.36c5.31-2.93,10.91-5.33,16.81-7.21,5.9-1.87,11.94-3.25,18.12-4.12,6.18-.87,12.1-1.21,17.77-1.03Zm42.41,53.12c0-3.2-.69-6.11-2.06-8.72-1.37-2.61-3.22-4.96-5.56-7.07-2.33-2.1-4.96-3.96-7.89-5.56-2.93-1.6-5.97-2.93-9.12-3.98-3.16-1.05-6.27-1.83-9.33-2.33-3.07-.5-5.88-.76-8.44-.76-3.84,0-8.21,.6-13.11,1.78-4.9,1.19-9.52,2.95-13.86,5.28-4.35,2.33-8.03,5.28-11.05,8.85-3.02,3.57-4.53,7.73-4.53,12.49s1.49,8.99,4.46,12.42c2.97,3.43,6.66,6.22,11.05,8.37,4.39,2.15,9.03,3.73,13.93,4.74,4.89,1.01,9.26,1.51,13.11,1.51,2.56,0,5.37-.23,8.44-.69,3.06-.46,6.18-1.14,9.33-2.06,3.16-.91,6.2-2.1,9.12-3.57,2.93-1.46,5.56-3.2,7.89-5.22,2.33-2.01,4.19-4.3,5.56-6.86,1.37-2.56,2.06-5.44,2.06-8.65Z"/>
        <path class="cls-2" d="M504.2,1.15V105.05h-29.92l-83.59-57.24v57.24h-36.79V1.15h29.65l83.86,60.12V1.15h36.79Z"/>
      </g>
    </g>
  </g>
</svg>